<svg width="124" height="22" viewBox="0 0 124 22" fill="none" xmlns="http://www.w3.org/2000/svg">
    <path d="M13.219 20.239l-.032-.001a.581.581 0 0 1-.542-.508L10.788 5.246l-2.03 9.668a.58.58 0 0 1-.536.461.574.574 0 0 1-.58-.404L5.617 8.624l-1.44 3.242a.578.578 0 0 1-.528.344H.58A.58.58 0 0 1 0 11.628a.58.58 0 0 1 .578-.583h2.696L5.178 6.76a.586.586 0 0 1 .56-.344c.239.014.446.174.518.404l1.822 5.706L10.36 1.65a.57.57 0 0 1 .59-.462.58.58 0 0 1 .55.508l1.89 14.758 1.21-5.04a.58.58 0 0 1 .563-.447h3.158a.58.58 0 0 1 .578.583.581.581 0 0 1-.578.584h-2.702l-1.839 7.658a.58.58 0 0 1-.561.447zm18.91 0l6.889-8.03 1.105-1.344c.549-.667.917-1.143 1.106-1.429.397-.571.68-1.114.85-1.629.133-.419.199-.847.199-1.286 0-1.086-.35-1.971-1.049-2.657-.7-.705-1.606-1.058-2.721-1.058-1.361 0-2.41.562-3.147 1.686-.397.61-.605 1.363-.624 2.258H32.64c.038-.895.19-1.686.454-2.372a5.412 5.412 0 0 1 .964-1.572A5.968 5.968 0 0 1 35.7 1.492c.832-.42 1.777-.629 2.835-.629 1.682 0 3.071.533 4.167 1.6 1.115 1.086 1.673 2.449 1.673 4.087 0 1.276-.501 2.639-1.503 4.087a18.94 18.94 0 0 1-1.304 1.657c-.189.248-.406.514-.652.8l-4.564 5.202h7.994v1.943H32.13zm27.045-5.544H61.5v1.943h-2.325v3.6h-2.098v-3.6h-9.695L59.174.12v14.575zm-2.098 0v-8.43l-5.981 8.43h5.981zm22.736-9.317a8.705 8.705 0 0 0-2.466-1.772c-1.077-.495-2.164-.743-3.26-.743-2.174 0-3.988.772-5.443 2.315-1.437 1.524-2.155 3.401-2.155 5.63 0 1.239.236 2.372.709 3.4a7.362 7.362 0 0 0 1.814 2.43c1.474 1.295 3.175 1.943 5.103 1.943 1.21 0 2.381-.295 3.515-.886a6.66 6.66 0 0 0 1.361-.886c.303-.228.577-.466.822-.714v2.63a9.473 9.473 0 0 1-3.09 1.485 9.478 9.478 0 0 1-2.608.372c-2.797 0-5.131-.943-7.002-2.83-1.852-1.886-2.778-4.21-2.778-6.972 0-2.84.945-5.202 2.835-7.088 1.87-1.886 4.224-2.829 7.059-2.829.359 0 .699.02 1.02.057.454.038.907.114 1.36.229 1.135.305 2.203.838 3.204 1.6v2.63zm3.204 14.86L86.162.12l7.258 16.09L100.819.09l2.948 20.148h-2.154l-1.786-13.26-6.436 14.06-6.35-14.06-1.87 13.26h-2.155zm38.271-14.545l-13.154 15.403V1.177h2.098v14.604L123.385.377V20.24h-2.098V5.693z" fill="#2A2A2C"/>
</svg>
