<svg width="353" height="127" viewBox="0 0 353 127" fill="none" xmlns="http://www.w3.org/2000/svg">
<path d="M136.4 93.1002L136.3 92.5002C136.3 92.5002 126.8 35.2002 126.5 33.4002C126.1 31.4002 125.1 30.8002 123.8 30.8002H123.7C122.5 30.8002 121.7 31.2002 120.9 33.3002C120.4 34.6002 103.7 81.1002 103.7 81.1002C103.7 81.1002 103.5 81.8002 102.7 81.8002C101.9 81.8002 101.7 81.0002 101.7 81.0002C101.7 81.0002 85 34.5002 84.5 33.2002C83.7 31.0002 82.9 30.7002 81.7 30.7002H81.6C80.3 30.7002 79.3 31.3002 78.9 33.3002C78.5 35.1002 69.1 92.4002 69.1 92.4002L69 93.1002C69 93.2002 69 93.4002 69 93.5002C69 95.4002 70.6 97.0002 72.5 97.1002H72.7C74.4 97.1002 75.8 95.8002 76.1 94.1002H76L76.1 94.0002L82 52.3002C82 52.3002 82.1 51.1002 83.1 51.1002C84.1 51.1002 84.5 52.4002 84.5 52.4002L99.9 94.8002L100 95.0002C100.4 96.1002 101.3 96.8002 102.8 96.8002C104.4 96.8002 105.2 96.0002 105.6 95.0002L105.7 94.8002L121 52.4002C121 52.4002 121.4 51.1002 122.4 51.1002C123.3 51.1002 123.5 52.3002 123.5 52.3002L129.4 93.9002L129.5 94.0002H129.4C129.7 95.7002 131.1 96.9002 132.8 97.0002H133C134.9 97.0002 136.5 95.4002 136.5 93.4002C136.4 93.3002 136.4 93.2002 136.4 93.1002Z" fill="#5D5D5D"/>
<path d="M56.4 84.3998C57 84.9998 57.3 85.8998 57.4 86.7998C57.4 88.5998 56 89.5998 56 89.5998C50 94.5998 42.7 96.9998 35.2 96.9998C16.8 96.9998 2 82.3998 2 63.9998C2 45.5998 16.8 30.7998 35.2 30.7998C43.6 30.7998 50 33.4998 55.7 37.8998L56.1 38.1998C57 38.9998 57.3 39.7998 57.3 40.7998C57.3 40.7998 57.3 41.9998 56.4 43.1998L56.3 43.2998C55.3 44.1998 53.9 44.2998 53.9 44.2998C53.2 44.2998 52.5 44.0998 52 43.6998C51.9 43.5998 51.6 43.3998 51.6 43.3998C47 39.7998 41 37.4998 35.2 37.4998C20.7 37.4998 9.5 49.6998 9.5 63.9998C9.5 78.1998 20.6 90.3998 35.2 90.3998C42.6 90.3998 47 87.5998 51.7 84.2998C53.8 82.7998 55.5 83.6998 56.1 84.1998" fill="#5D5D5D"/>
<path d="M156.7 82.1002C156.1 81.8002 156.1 81.1002 156.1 81.1002V34.4002V34.0002C156 32.2002 154.5 30.8002 152.7 30.7002H152.5C150.6 30.7002 149.2 32.2002 149.1 34.1002V34.2002V93.4002C149.1 95.3002 150.6 96.9002 152.6 96.9002C153.6 96.9002 154.5 96.5002 155.2 95.8002L194.3 46.0002C194.3 46.0002 194.9 45.4002 195.6 45.6002C196.3 45.9002 196.3 46.7002 196.3 46.7002V93.3002V93.7002C196.4 95.5002 197.9 96.9002 199.7 97.0002H199.9C201.8 97.0002 203.2 95.5002 203.3 93.6002V93.5002V34.2002C203.3 32.3002 201.8 30.7002 199.8 30.7002C198.8 30.7002 197.8 31.1002 197.2 31.8002C187.4 44.4002 158 81.7002 158 81.7002C158 81.7002 157.6 82.4002 156.7 82.1002Z" fill="#5D5D5D"/>
<path d="M349.7 63.8999C349.7 97.5999 322.4 124.9 288.7 124.9C255 124.9 227.7 97.5999 227.7 63.8999C227.7 30.1999 255 2.8999 288.7 2.8999C322.4 2.8999 349.7 30.1999 349.7 63.8999Z" fill="#666666"/>
<path d="M305.8 90.7998H305.5H281.3C281.3 90.7998 280.7 90.8998 280.3 90.1998C279.9 89.4998 280.4 88.9998 280.4 88.9998C280.4 88.9998 291.6 76.9998 297.2 71.0998C303.8 63.9998 309.2 57.6998 309.2 49.2998C309.2 39.4998 302.2 30.7998 288.4 30.7998C279.5 30.7998 273.4 36.4998 271.1 39.0998L270.9 39.2998C270.5 39.8998 270.2 40.5998 270.2 41.2998C270.2 42.1998 270.6 42.9998 271.1 43.5998L271.2 43.6998C271.8 44.1998 272.5 44.4998 273.3 44.4998C274.2 44.4998 275 44.0998 275.6 43.4998C278.6 40.4998 282.9 37.2998 288.2 37.2998C298.1 37.2998 301.7 43.9998 301.7 49.4998C301.7 53.9998 298.5 59.7998 292 66.8998C284.4 75.0998 276.9 83.2998 269.2 91.4998L269 91.6998C268.8 91.9998 268.6 92.2998 268.5 92.5998C268.4 92.9998 268.3 93.2998 268.3 93.6998C268.3 94.0998 268.4 94.4998 268.5 94.7998C269 95.9998 270 96.8998 271.4 96.8998H271.6H305.4H305.7C307.3 96.7998 308.6 95.4998 308.7 93.8998V93.5998C308.6 92.0998 307.4 90.7998 305.8 90.7998Z" fill="white"/>
</svg>
